<svg xmlns="http://www.w3.org/2000/svg" viewBox="0 0 87.5 72">
  <path fill="#00832d" d="M49.5 36l8.53 9.75 11.47 7.33 2-17.02-2-16.64-11.69 6.44z"/>
  <path fill="#0066da" d="M0 51.5V66c0 3.315 2.685 6 6 6h14.5l3-10.96-3-9.54-9.96-3z"/>
  <path fill="#e94235" d="M20.5 0L0 20.5l10.54 3 9.96-3 2.95-9.41z"/>
  <path fill="#2684fc" d="M20.5 20.5H0v31h20.5z"/>
  <path fill="#00ac47" d="M82.6 8.68L69.5 19.42v33.16l13.1 10.74c1.95 1.52 4.84.14 4.84-2.32V11c0-2.49-2.91-3.84-4.84-2.32zM49.5 36v15.5h-29V20.5h29z"/>
  <path fill="#00832d" d="M49.5 20.5h-29v31h29z"/>
  <path fill="#0066da" d="M49.5 20.5L61 13.08 69.5 8H20.5v12.5z"/>
  <path fill="#2684fc" d="M49.5 51.5H20.5V66h29z"/>
  <path fill="#00ac47" d="M20.5 66h29v6H6c-3.315 0-6-2.685-6-6V51.5h20.5z"/>
  <path fill="#e94235" d="M69.5 8L49.5 20.5v31L69.5 63V8z"/>
</svg>
